<svg width="18" height="18" viewBox="0 0 18 18" fill="none" xmlns="http://www.w3.org/2000/svg">
<path d="M2.62508 15.375C3.24758 15.9975 4.25258 15.9975 4.87508 15.375L14.6251 5.62499C15.2476 5.00249 15.2476 3.99749 14.6251 3.37499C14.0026 2.75249 12.9976 2.75249 12.3751 3.37499L2.62508 13.125C2.00258 13.7475 2.00258 14.7525 2.62508 15.375Z" stroke="#6366F1" stroke-linecap="round" stroke-linejoin="round"/>
<path d="M13.5078 6.74252L11.2578 4.49252" stroke="#6366F1" stroke-linecap="round" stroke-linejoin="round"/>
<path d="M6.375 1.83L7.5 1.5L7.17 2.625L7.5 3.75L6.375 3.42L5.25 3.75L5.58 2.625L5.25 1.5L6.375 1.83Z" stroke="#6366F1" stroke-linecap="round" stroke-linejoin="round"/>
<path d="M3.375 6.33L4.5 6L4.17 7.125L4.5 8.25L3.375 7.92L2.25 8.25L2.58 7.125L2.25 6L3.375 6.33Z" stroke="#6366F1" stroke-linecap="round" stroke-linejoin="round"/>
<path d="M14.625 10.08L15.75 9.75L15.42 10.875L15.75 12L14.625 11.67L13.5 12L13.83 10.875L13.5 9.75L14.625 10.08Z" stroke="#6366F1" stroke-linecap="round" stroke-linejoin="round"/>
</svg>
